<?xml version="1.0" encoding="utf-8"?>
<!-- Generator: Adobe Illustrator 21.1.0, SVG Export Plug-In . SVG Version: 6.00 Build 0)  -->
<svg version="1.1" id="Layer_1" xmlns="http://www.w3.org/2000/svg" xmlns:xlink="http://www.w3.org/1999/xlink" x="0px" y="0px"
	 viewBox="0 0 512.8 512.2" style="enable-background:new 0 0 512.8 512.2;" xml:space="preserve">
<style type="text/css">
	.st0{fill:url(#SVGID_1_);}
	.st1{fill:url(#SVGID_2_);}
	.st2{fill:url(#SVGID_3_);}
	.st3{fill:url(#SVGID_4_);}
	.st4{fill:url(#SVGID_5_);}
	.st5{fill:url(#SVGID_6_);}
	.st6{fill:url(#SVGID_7_);}
	.st7{fill:url(#SVGID_8_);}
	.st8{fill:url(#SVGID_9_);}
	.st9{fill:#FFFFFF;}
	.st10{fill:url(#SVGID_10_);}
	.st11{fill:url(#SVGID_11_);}
	.st12{fill:url(#SVGID_12_);}
	.st13{fill:url(#SVGID_13_);}
	.st14{fill:url(#SVGID_14_);}
</style>
<g id="partly_cloudy_day">
	<path d="M211.5,87.4c58.2,0,105.4,47.2,105.4,105.4s-47.2,105.4-105.4,105.4s-105.4-47.2-105.4-105.4S153.3,87.4,211.5,87.4
		C211.5,87.4,211.5,87.4,211.5,87.4z"/>
	<path d="M211.5,347.7l-19.9-34.4h39.7L211.5,347.7z"/>
	<path d="M211.5,38.2l-19.9,34.4h39.7L211.5,38.2z"/>
	<path d="M56.6,193l34.4-19.8v39.7L56.6,193z"/>
	<path d="M366.3,193l-34.4-19.8v39.7L366.3,193z"/>
	<path d="M323,299.2l-10.3-38.3l-28.1,28.1L323,299.2z"/>
	<path d="M327,91.2l-38.3,10.3l28.1,28.1L327,91.2z"/>
	<path d="M99.5,299.2l10.3-38.3l28.1,28.1L99.5,299.2z"/>
	<path d="M95.5,91.2l38.3,10.3l-28.1,28.1L95.5,91.2z"/>
	<path d="M130.3,282.6c31.1,0,56.4,26.4,56.4,58.9s-25.2,58.9-56.4,58.9s-56.4-26.4-56.4-58.9S99.2,282.6,130.3,282.6z"/>
	<path d="M302.8,192.2c65.5,0,118.6,46.6,118.6,104.1s-53.1,104.1-118.6,104.1s-118.6-46.6-118.6-104.1S237.3,192.2,302.8,192.2z"/>
	<path d="M137.9,341.3h260.5c20.7,0,37.5,13.3,37.5,29.6s-16.8,29.6-37.5,29.6H137.9c-20.7,0-37.5-13.3-37.5-29.6
		S117.2,341.3,137.9,341.3z"/>
	<path d="M203.5,238.3c38.9,0,70.5,33,70.5,73.7s-31.6,73.7-70.5,73.7S133,352.7,133,312S164.6,238.3,203.5,238.3z"/>
	<path d="M403.5,253.1c39,0,70.5,33,70.5,73.7s-31.6,73.7-70.5,73.7s-70.5-33-70.5-73.7S364.6,253.1,403.5,253.1z"/>
	<path d="M125,287.9c32,0,58,26,58,58s-26,58-58,58s-58-26-58-58l0,0C67,313.9,93,287.9,125,287.9z"/>
	<path d="M302.4,198.8c67.4,0,122,45.9,122,102.5s-54.6,102.5-122,102.5s-122-45.9-122-102.5S235,198.8,302.4,198.8z"/>
	<path d="M132.8,345.6h268.1c21.3,0,38.6,13.1,38.6,29.2S422.1,404,400.8,404H132.8c-21.3,0-38.6-13.1-38.6-29.2
		S111.5,345.6,132.8,345.6z"/>
	<path d="M200.3,244.3c40.1,0,72.6,32.5,72.6,72.5s-32.5,72.6-72.6,72.6s-72.5-32.5-72.6-72.5S160.2,244.3,200.3,244.3L200.3,244.3z
		"/>
	<path d="M406,258.8c40.1,0,72.6,32.5,72.6,72.5s-32.5,72.6-72.6,72.6s-72.5-32.5-72.5-72.5S366,258.8,406,258.8L406,258.8z"/>
	
		<radialGradient id="SVGID_1_" cx="196.27" cy="318.47" r="152.79" gradientTransform="matrix(1 0 0 -1 0 512)" gradientUnits="userSpaceOnUse">
		<stop  offset="0" style="stop-color:#FBF49E"/>
		<stop  offset="0.99" style="stop-color:#FAA61A"/>
	</radialGradient>
	<path class="st0" d="M196,87.4c58.2,0,105.4,47.2,105.4,105.4S254.2,298.3,196,298.3S90.6,251.1,90.6,192.9S137.8,87.4,196,87.4
		L196,87.4z"/>
	
		<radialGradient id="SVGID_2_" cx="196.27" cy="318.47" r="152.79" gradientTransform="matrix(1 0 0 -1 0 512)" gradientUnits="userSpaceOnUse">
		<stop  offset="0" style="stop-color:#FBF49E"/>
		<stop  offset="0.99" style="stop-color:#FAA61A"/>
	</radialGradient>
	<path class="st1" d="M196,347.7l-19.9-34.4h39.7L196,347.7z"/>
	
		<radialGradient id="SVGID_3_" cx="196.27" cy="318.47" r="152.79" gradientTransform="matrix(1 0 0 -1 0 512)" gradientUnits="userSpaceOnUse">
		<stop  offset="0" style="stop-color:#FBF49E"/>
		<stop  offset="0.99" style="stop-color:#FAA61A"/>
	</radialGradient>
	<path class="st2" d="M196,38.2l-19.9,34.4h39.7L196,38.2z"/>
	
		<radialGradient id="SVGID_4_" cx="196.27" cy="318.47" r="152.79" gradientTransform="matrix(1 0 0 -1 0 512)" gradientUnits="userSpaceOnUse">
		<stop  offset="0" style="stop-color:#FBF49E"/>
		<stop  offset="0.99" style="stop-color:#FAA61A"/>
	</radialGradient>
	<path class="st3" d="M41,193l34.4-19.8v39.7L41,193z"/>
	
		<radialGradient id="SVGID_5_" cx="196.27" cy="318.47" r="152.79" gradientTransform="matrix(1 0 0 -1 0 512)" gradientUnits="userSpaceOnUse">
		<stop  offset="0" style="stop-color:#FBF49E"/>
		<stop  offset="0.99" style="stop-color:#FAA61A"/>
	</radialGradient>
	<path class="st4" d="M350.8,193l-34.4-19.8v39.7L350.8,193z"/>
	
		<radialGradient id="SVGID_6_" cx="196.27" cy="318.47" r="152.79" gradientTransform="matrix(1 0 0 -1 0 512)" gradientUnits="userSpaceOnUse">
		<stop  offset="0" style="stop-color:#FBF49E"/>
		<stop  offset="0.99" style="stop-color:#FAA61A"/>
	</radialGradient>
	<path class="st5" d="M307.5,299.2l-10.3-38.3l-28.1,28.1L307.5,299.2z"/>
	
		<radialGradient id="SVGID_7_" cx="196.27" cy="318.47" r="152.79" gradientTransform="matrix(1 0 0 -1 0 512)" gradientUnits="userSpaceOnUse">
		<stop  offset="0" style="stop-color:#FBF49E"/>
		<stop  offset="0.99" style="stop-color:#FAA61A"/>
	</radialGradient>
	<path class="st6" d="M311.5,91.2l-38.3,10.3l28.1,28.1L311.5,91.2z"/>
	
		<radialGradient id="SVGID_8_" cx="196.27" cy="318.47" r="152.79" gradientTransform="matrix(1 0 0 -1 0 512)" gradientUnits="userSpaceOnUse">
		<stop  offset="0" style="stop-color:#FBF49E"/>
		<stop  offset="0.99" style="stop-color:#FAA61A"/>
	</radialGradient>
	<path class="st7" d="M84,299.2l10.3-38.3l28.1,28.1L84,299.2z"/>
	
		<radialGradient id="SVGID_9_" cx="196.27" cy="318.47" r="152.79" gradientTransform="matrix(1 0 0 -1 0 512)" gradientUnits="userSpaceOnUse">
		<stop  offset="0" style="stop-color:#FBF49E"/>
		<stop  offset="0.99" style="stop-color:#FAA61A"/>
	</radialGradient>
	<path class="st8" d="M79.9,91.2l38.3,10.3l-28.1,28.1L79.9,91.2z"/>
	<path class="st9" d="M120.2,288c31,0,56.1,26.3,56.1,58.7s-25.1,58.7-56.2,58.7S64,379.1,64,346.7S89.2,288,120.2,288z"/>
	<path class="st9" d="M291.9,198c65.1,0,118,46.4,118,103.7s-52.9,103.7-118,103.7s-118.1-46.4-118.1-103.7S226.6,198,291.9,198z"/>
	<path class="st9" d="M127.7,346.4h259.4c20.6,0,37.3,13.2,37.3,29.5s-16.7,29.5-37.3,29.5H127.7c-20.6,0-37.3-13.2-37.3-29.5
		S107.1,346.4,127.7,346.4z"/>
	<path class="st9" d="M193,243.9c38.8,0,70.2,32.8,70.2,73.4s-31.4,73.4-70.2,73.4s-70.2-32.8-70.2-73.4S154.3,243.9,193,243.9z"/>
	<path class="st9" d="M392.2,258.6c38.8,0,70.2,32.8,70.2,73.4s-31.4,73.4-70.2,73.4S322,372.5,322,332S353.4,258.6,392.2,258.6z"/>
	
		<linearGradient id="SVGID_10_" gradientUnits="userSpaceOnUse" x1="124.59" y1="301.36" x2="124.59" y2="104.86" gradientTransform="matrix(1 0 0 -1 0 512)">
		<stop  offset="0" style="stop-color:#FFFFFF"/>
		<stop  offset="0.99" style="stop-color:#B1B0B1"/>
	</linearGradient>
	<path class="st10" d="M124.6,296.4c31,0,56.2,25.1,56.2,56.1s-25.1,56.2-56.2,56.2s-56.2-25.1-56.2-56.2l0,0
		C68.4,321.6,93.6,296.4,124.6,296.4z"/>
	
		<linearGradient id="SVGID_11_" gradientUnits="userSpaceOnUse" x1="296.28" y1="301.36" x2="296.28" y2="104.86" gradientTransform="matrix(1 0 0 -1 0 512)">
		<stop  offset="0" style="stop-color:#FFFFFF"/>
		<stop  offset="0.99" style="stop-color:#B1B0B1"/>
	</linearGradient>
	<path class="st11" d="M296.3,210.3c65.2,0,118.1,44.4,118.1,99.2s-52.9,99.2-118.1,99.2s-118.1-44.4-118.1-99.2
		S231.1,210.3,296.3,210.3z"/>
	
		<linearGradient id="SVGID_12_" gradientUnits="userSpaceOnUse" x1="261.845" y1="301.36" x2="261.845" y2="104.86" gradientTransform="matrix(1 0 0 -1 0 512)">
		<stop  offset="0" style="stop-color:#FFFFFF"/>
		<stop  offset="0.99" style="stop-color:#B1B0B1"/>
	</linearGradient>
	<path class="st12" d="M132.1,352.3h259.4c20.6,0,37.3,12.6,37.3,28.2s-16.7,28.2-37.3,28.2H132.1c-20.6,0-37.3-12.6-37.3-28.2
		S111.6,352.3,132.1,352.3z"/>
	
		<linearGradient id="SVGID_13_" gradientUnits="userSpaceOnUse" x1="197.48" y1="301.36" x2="197.48" y2="104.86" gradientTransform="matrix(1 0 0 -1 0 512)">
		<stop  offset="0" style="stop-color:#FFFFFF"/>
		<stop  offset="0.99" style="stop-color:#B1B0B1"/>
	</linearGradient>
	<path class="st13" d="M197.5,254.2c38.8,0,70.2,31.4,70.2,70.2s-31.4,70.2-70.2,70.2s-70.2-31.4-70.2-70.2
		C127.3,285.7,158.7,254.2,197.5,254.2L197.5,254.2z"/>
	
		<linearGradient id="SVGID_14_" gradientUnits="userSpaceOnUse" x1="396.59" y1="301.36" x2="396.59" y2="104.86" gradientTransform="matrix(1 0 0 -1 0 512)">
		<stop  offset="0" style="stop-color:#FFFFFF"/>
		<stop  offset="0.99" style="stop-color:#B1B0B1"/>
	</linearGradient>
	<path class="st14" d="M396.6,268.3c38.8,0,70.2,31.4,70.2,70.2s-31.4,70.2-70.2,70.2s-70.2-31.4-70.2-70.2l0,0
		C326.4,299.7,357.8,268.3,396.6,268.3z"/>
</g>
</svg>
