<svg width="96" height="42" viewBox="0 0 96 42" fill="none" xmlns="http://www.w3.org/2000/svg">
<g clip-path="url(#clip0)">
<path d="M20.925 37.425C11.85 37.425 4.5 30.075 4.5 21C4.5 11.925 11.775 4.50001 20.925 4.50001C28.425 4.50001 34.8 9.60001 36.75 16.5H41.025C39 7.12501 30.675 0.0750122 20.7 0.0750122C9.3 0.0750122 0 9.37501 0 20.775C0 32.25 9.3 41.475 20.7 41.475C30.6 41.475 38.925 34.5 40.95 25.2H36.75C34.875 32.25 28.5 37.425 20.925 37.425Z" fill="#455560"/>
<path d="M41.325 18.975H20.775V22.875H41.325C41.4 22.275 41.475 21.675 41.475 21C41.475 20.25 41.4 19.575 41.325 18.975V18.975Z" fill="#6AAA37"/>
<path d="M52.575 15H55.35V18.45C54.375 18.9 53.325 19.125 52.35 19.125C51 19.125 49.95 18.75 49.125 17.925C48.3 17.1 47.925 16.2 47.925 15C47.925 13.8 48.375 12.75 49.2 11.925C50.025 11.1 51.075 10.725 52.35 10.725C52.8 10.725 53.25 10.8 53.625 10.875C54 10.95 54.525 11.175 55.2 11.4V12.6C54.225 12 53.25 11.775 52.275 11.775C51.375 11.775 50.625 12.075 50.025 12.675C49.425 13.275 49.125 14.025 49.125 14.925C49.125 15.825 49.425 16.575 50.025 17.175C50.625 17.775 51.45 18.075 52.35 18.075C52.8 18.075 53.4 18 54 17.775H54.075V16.05H52.5V15H52.575ZM56.85 18.975V10.875H58.875C59.7 10.875 60.375 11.1 60.825 11.475C61.275 11.85 61.575 12.45 61.575 13.125C61.575 13.575 61.425 14.025 61.2 14.325C60.975 14.7 60.6 14.925 60.15 15.075C60.375 15.225 60.675 15.45 60.9 15.75C61.125 16.05 61.5 16.575 61.95 17.325C62.25 17.775 62.475 18.15 62.625 18.375L63.075 18.975H61.65L61.275 18.45C61.275 18.45 61.275 18.375 61.2 18.375L60.975 18.075L60.75 17.475L60.375 16.875C60.15 16.575 59.925 16.275 59.7 16.05C59.475 15.825 59.325 15.675 59.175 15.6C59.025 15.525 58.725 15.45 58.35 15.45H58.05V18.975H56.85V18.975ZM58.425 11.85H58.05V14.4H58.5C59.1 14.4 59.475 14.325 59.7 14.25C59.925 14.175 60.075 14.025 60.225 13.8C60.375 13.575 60.375 13.35 60.375 13.125C60.375 12.9 60.3 12.6 60.15 12.45C60 12.225 59.85 12.075 59.55 12C59.4 11.85 58.95 11.85 58.425 11.85ZM66.9 10.8H67.725L71.4 18.975H70.2L69.075 16.575H65.625L64.575 18.975H63.375L66.9 10.8V10.8ZM68.625 15.525L67.275 12.6L66.075 15.525H68.625V15.525ZM77.85 10.875H79.05V19.05H77.85V15.525H73.275V19.05H72.075V10.875H73.275V14.4H77.85V10.875ZM83.25 10.8H84.075L87.75 18.975H86.55L85.425 16.575H81.975L80.925 18.975H79.725L83.25 10.8V10.8ZM84.975 15.525L83.625 12.6L82.425 15.525H84.975V15.525ZM94.875 10.875H96V19.05H94.8V12.675L92.325 15.825H92.1L89.55 12.675V19.05H88.35V10.875H89.475L92.175 14.25L94.875 10.875ZM48.15 32.175V24H50.925C52.05 24 52.95 24.15 53.55 24.525C54.225 24.825 54.675 25.35 55.125 26.025C55.5 26.7 55.725 27.375 55.725 28.125C55.725 28.65 55.65 29.175 55.425 29.7C55.2 30.225 54.9 30.6 54.525 31.05C54.15 31.425 53.7 31.725 53.175 31.95C52.875 32.1 52.575 32.175 52.35 32.175C52.125 32.25 51.6 32.25 50.85 32.25H48.15V32.175ZM50.775 25.05H49.35V31.125H50.85C51.45 31.125 51.9 31.05 52.2 30.975C52.5 30.9 52.8 30.825 53.025 30.675C53.25 30.525 53.475 30.375 53.625 30.225C54.225 29.625 54.525 28.875 54.525 27.975C54.525 27.075 54.225 26.4 53.625 25.8C53.4 25.575 53.175 25.425 52.875 25.275C52.575 25.125 52.35 25.05 52.05 24.975C51.75 25.05 51.375 25.05 50.775 25.05V25.05ZM56.925 24H58.125V32.175H56.925V24ZM64.05 28.125H66.825V31.575C65.85 32.025 64.8 32.25 63.825 32.25C62.475 32.25 61.425 31.875 60.6 31.05C59.775 30.225 59.4 29.325 59.4 28.125C59.4 26.925 59.85 25.875 60.675 25.05C61.5 24.225 62.55 23.85 63.825 23.85C64.275 23.85 64.725 23.925 65.1 24C65.475 24.075 66 24.3 66.675 24.525V25.725C65.7 25.125 64.725 24.9 63.75 24.9C62.85 24.9 62.1 25.2 61.5 25.8C60.9 26.4 60.6 27.15 60.6 28.05C60.6 28.95 60.9 29.7 61.5 30.3C62.1 30.9 62.925 31.2 63.825 31.2C64.275 31.2 64.875 31.125 65.475 30.9H65.55V29.175H63.975V28.125H64.05ZM68.325 24H69.525V32.175H68.325V24ZM70.35 24H77.175V25.05H74.325V32.175H73.125V25.05H70.35V24ZM79.575 23.925H80.4L84.075 32.1H82.875L81.75 29.7H78.3L77.25 32.1H76.05L79.575 23.925V23.925ZM81.3 28.725L79.95 25.8L78.75 28.725H81.3V28.725ZM84.75 24H85.95V31.125H89.625V32.175H84.75V24Z" fill="#455560"/>
</g>
<defs>
<clipPath id="clip0">
<rect width="96" height="41.55" fill="white"/>
</clipPath>
</defs>
</svg>
