<svg width="96" height="43" viewBox="0 0 96 43" fill="none" xmlns="http://www.w3.org/2000/svg">
<g clip-path="url(#clip0)">
<path d="M55.125 11.65C54.075 12.1 53.175 12.325 52.05 12.325C49.575 12.325 47.775 10.6 47.775 8.2C47.775 5.8 49.65 4 52.125 4C53.1 4 53.775 4.15 54.975 4.675V5.875C54 5.35 53.025 5.05 52.05 5.05C50.325 5.05 48.9 6.4 48.9 8.125C48.9 9.925 50.25 11.2 52.2 11.2C52.8 11.2 53.4 11.05 53.925 10.9V9.25H52.35V8.2H55.05V11.65H55.125ZM58.875 4.075C60.525 4.075 61.5 4.975 61.5 6.325C61.5 7.3 61.05 7.975 60.15 8.275C60.9 8.725 61.35 9.475 61.95 10.525C62.325 11.05 62.475 11.35 63.075 12.1H61.65L60.6 10.45C59.55 8.8 59.025 8.575 58.425 8.575H57.975V12.1H56.775V4.075H58.875ZM57.975 7.6H58.725C60 7.6 60.3 6.925 60.3 6.25C60.3 5.5 59.85 5.05 58.725 5.05H57.975V7.6ZM71.025 12.175H69.825L68.775 9.775H65.325L64.275 12.175H63.075L66.525 4H67.35L71.025 12.175ZM65.775 8.725H68.25L66.975 5.8L65.775 8.725ZM78.75 12.175H77.55V8.65H73.05V12.175H71.85V4.075H73.05V7.6H77.55V4.075H78.75V12.175ZM87.6 12.175H86.4L85.35 9.775H81.9L80.85 12.175H79.65L83.1 4H83.925L87.6 12.175ZM82.35 8.725H84.9L83.55 5.8L82.35 8.725V8.725ZM96 12.175H94.8V5.875L92.325 9.025H92.1L89.625 5.875V12.175H88.425V4.075H89.55L92.25 7.375L94.95 4.075H96V12.175V12.175ZM55.575 25.225H54.375V18.925L51.9 22.075H51.675L49.2 18.925V25.225H48V17.125H49.125L51.825 20.425L54.525 17.125H55.575V25.225V25.225ZM61.875 18.175H58.5V20.65H61.8V21.7H58.5V24.25H62.025V25.3H57.3V17.125H61.875V18.175ZM63.225 17.125H66.375C69.375 17.125 70.65 19.225 70.65 21.175C70.65 23.275 69 25.225 66.375 25.225H63.225V17.125ZM64.425 24.175H66.3C68.925 24.175 69.525 22.15 69.525 21.175C69.525 19.525 68.475 18.175 66.225 18.175H64.425V24.175V24.175ZM73.35 25.225H72.15V17.125H73.35V25.225V25.225ZM82.125 25.225H80.925L79.875 22.825H76.425L75.375 25.225H74.25L77.7 17.05H78.525L82.125 25.225V25.225ZM76.875 21.85H79.425L78.15 18.925L76.875 21.85ZM55.125 37.75C54.075 38.2 53.175 38.425 52.05 38.425C49.575 38.425 47.775 36.7 47.775 34.3C47.775 31.9 49.65 30.1 52.125 30.1C53.1 30.1 53.775 30.25 54.975 30.775V31.975C54 31.45 53.025 31.15 52.05 31.15C50.325 31.15 48.9 32.5 48.9 34.225C48.9 36.025 50.25 37.3 52.2 37.3C52.8 37.3 53.4 37.15 53.925 37V35.35H52.35V34.3H55.05V37.75H55.125ZM58.875 30.25C60.525 30.25 61.5 31.15 61.5 32.5C61.5 33.4 61.05 34.15 60.15 34.45C60.9 34.9 61.35 35.65 61.95 36.7C62.325 37.225 62.475 37.525 63.075 38.275H61.65L60.6 36.625C59.55 34.975 59.025 34.75 58.425 34.75H57.975V38.275H56.775V30.25H58.875ZM57.975 33.775H58.725C60 33.775 60.3 33.1 60.3 32.425C60.3 31.675 59.85 31.225 58.725 31.225H57.975V33.775ZM67.05 30.1C69.75 30.1 71.4 31.975 71.4 34.225C71.4 36.4 69.75 38.35 67.05 38.35C64.425 38.35 62.7 36.4 62.7 34.225C62.7 32.05 64.425 30.1 67.05 30.1ZM67.05 37.375C68.85 37.375 70.2 36.025 70.2 34.3C70.2 32.5 68.85 31.225 67.05 31.225C65.25 31.225 63.9 32.5 63.9 34.3C63.9 36.025 65.25 37.375 67.05 37.375ZM79.125 35.125C79.125 37.075 77.925 38.425 75.525 38.425C73.8 38.425 72.15 37.45 72.15 35.275V30.25H73.35V35.05C73.35 35.95 73.5 36.325 73.8 36.7C74.25 37.15 74.85 37.375 75.525 37.375C76.425 37.375 77.025 37.075 77.4 36.7C77.85 36.25 77.925 35.725 77.925 34.9V30.175H79.125V35.125V35.125ZM83.175 30.25C84.975 30.25 85.725 31.3 85.725 32.575C85.725 33.85 84.9 34.825 83.025 34.825H81.825V38.35H80.625V30.25H83.175V30.25ZM81.825 33.775H83.175C84.075 33.775 84.6 33.325 84.6 32.5C84.6 31.9 84.3 31.3 83.25 31.3H81.9V33.775H81.825ZM20.925 37.975C11.85 37.975 4.425 30.625 4.425 21.475C4.425 12.325 11.775 4.975 20.925 4.975C28.5 5.05 34.875 10.075 36.825 17.05H41.1C39.15 7.6 30.825 0.550003 20.775 0.550003C9.3 0.550003 0 9.85 0 21.325C0 32.8 9.3 42.1 20.775 42.1C30.75 42.1 39 35.125 41.1 25.75H36.9C35.025 32.8 28.575 37.975 20.925 37.975Z" fill="#455560"/>
<path d="M41.4 19.525H20.85V23.425H41.475C41.55 22.825 41.625 22.15 41.625 21.55C41.55 20.8 41.55 20.125 41.4 19.525Z" fill="#EC1E33"/>
</g>
<defs>
<clipPath id="clip0">
<rect width="96" height="41.55" fill="white" transform="translate(0 0.550003)"/>
</clipPath>
</defs>
</svg>
