<svg version="1.1" id="Solid" xmlns="http://www.w3.org/2000/svg" x="0" y="0" viewBox="0 0 584.7 265.9" xml:space="preserve"><style>.st1{fill:#e12028}.st2{fill:#fff}</style><path fill="#282828" d="M-6158-4633.4H6743v9545H-6158z"/><path class="st1" d="M152-.4l-90 255h430l93-255z"/><path class="st2" d="M209 84.6l-65 157h73l66-157z"/><path class="st2" d="M152 0l-24.3 67.3c28.8 8.8 52.4 29.6 65.1 56.4l16.4-39.1h73.6l-66.1 157.3h-42.6c-4.4 4.7-9.3 9-14.5 12.9h332.3L584.7 0H152z"/><path fill="#d42633" d="M426.4 42.9h22l-4.9-18.5"/><path class="st1" d="M152 0l-24.3 67.3L144 241.6l65.2-157h73.6l-66.1 157.3h-42.6c-4.4 4.7-9.3 9-14.5 12.9h332.3L584.7 0H152zm331.4 9.4h81.1l-5.2 12.5H532l-19.3 45h-26.9l18.8-45.2h-26.4l5.2-12.3zM451.5 9c18.2 0 18.7 8.8 18.7 8.8l13 49.5H455l-3.7-12.4h-38.2l-13.8 12.2h-28.5L425.4 18c.1.1 7.9-9 26.1-9zm-112.3.2h56.7l-5.2 12.4h-47.5s-6.5.1-7.8 3.3c-1.3 3.2-1.5 3.5-1.5 3.5s-1.8 3.5 6.7 3.5h23.6s22.1.4 17.7 11c-4.4 10.6-4.8 11.5-4.8 11.5s-3.9 12.8-33.1 12.8h-53.6l5.2-12.6h47.7s6.6-.1 7.9-3.4c1.3-3.3 1.7-4 1.7-4s.9-2.8-5-2.8h-23.8s-23.6-1.1-19.4-11.5c4.2-10.4 5.1-12.4 5.1-12.4s5.1-11.3 29.4-11.3zM155.4 16l16 21.8-34.3 21.5L155.4 16zm9 43.5l18.2-43.4 16 21.7-34.2 21.7zm30.5 7.6l24.2-58.2h27.4L222 67.1h-27.1zm61.4-.1l-19.9-24.7s-2-3.1-1.4-4.7c.7-1.6 4-3.6 4-3.6l40.6-25.1h31l-46 28.8L287.7 67h-31.4zm211.1 140.6l-14.2 34.3H230.8s9.5-22.5 24.2-58.1c14.8-35.6 82.9-34.4 82.9-34.4h60.9c21.5 0 23.6-8.7 23.6-8.7s1.1-3 5.3-12.5c4.2-9.5-9.5-9.6-9.5-9.6H282.5l14.3-33.8H439c84.2 0 66.8 31.8 66.8 31.8s-2.7 6.6-15.3 36.3c-12.7 29.7-82.5 30.9-82.5 30.9h-60c-19.9 0-22.3 7.9-22.3 7.9l-6.8 15.9h148.5z"/></svg>