<svg width="342" height="99" viewBox="0 0 342 99" fill="none" xmlns="http://www.w3.org/2000/svg">
<g clip-path="url(#clip0)">
<path d="M34 73C46.8 81.1 63.6 77.6 72.2 65.4C72.5 65 72.8 64.6 73 64.1C73.3 63.7 73.5 63.2 73.8 62.8C81.1 49.8 76.9 33.1 64.1 25.1C51.3 17 34.5 20.5 25.9 32.7C25.6 33.1 25.3 33.5 25.1 34C24.9 34.5 24.6 34.9 24.3 35.3C17.1 48.3 21.2 65 34 73Z" fill="#DD242F"/>
<path d="M75.2 7.49996C52.8 -6.50004 23.5 -0.300043 8.59998 21.3C20.4 4.49996 43.4 -0.200042 60.9 10.8C63.9 12.7 66.6 15 68.9 17.5C75.6 24.8 79.1 34.3 78.9 44C78.8 50.4 77.2 56.9 73.7 62.8C73.4 63.2 73.2 63.7 72.9 64.1C72.6 64.5 72.3 64.9 72.1 65.4C63.6 77.6 46.8 81.1 34 73C21.2 65 17.1 48.3 24.3 35.3C19.7 43.3 18.3 52.3 19.7 60.9C20.9 68.2 24.1 75 29.2 80.6C31.5 83.2 34.2 85.4 37.2 87.3C54.7 98.3 77.7 93.6 89.4 76.8C89.8 76.3 90.1 75.7 90.5 75.1C90.9 74.5 91.2 74 91.5 73.4C104.7 50.8 97.6 21.6 75.2 7.49996Z" fill="#3B4C7A"/>
<path d="M37.2 87.2999C34.2 85.3999 31.5 83.0999 29.2 80.5999C24.1 74.9999 20.9 68.0999 19.7 60.8999C18.3 52.3999 19.7 43.2999 24.3 35.2999C24.6 34.8999 24.8 34.3999 25.1 33.9999C25.4 33.5999 25.7 33.1999 25.9 32.6999C34.5 20.4999 51.3 16.9999 64.1 25.0999C76.9 33.1999 81 49.7999 73.8 62.7999C77.2 56.8999 78.9 50.3999 79 43.9999C79.1 34.2999 75.6 24.7999 69 17.4999C66.7 14.8999 64 12.6999 61 10.7999C43.4 -0.200085 20.4 4.49991 8.59999 21.2999C8.19999 21.7999 7.89999 22.3999 7.49999 22.9999C7.09999 23.5999 6.79999 24.0999 6.49999 24.6999C-6.60001 47.3999 0.499987 76.5999 22.9 90.5999C45.3 104.7 74.6 98.4999 89.5 76.8999C77.7 93.5999 54.8 98.3999 37.2 87.2999Z" fill="#5596CB"/>
<path d="M63.4 47.2999L42 35.8999C40.4 34.9999 38.5 36.1999 38.5 37.9999V60.8999C38.5 62.6999 40.4 63.8999 42 62.9999L63.5 51.5999C65.1 50.6999 65.1 48.1999 63.4 47.2999Z" fill="white"/>
<path d="M173.9 40.3C173.9 58.1 160.4 72.1 143.7 72.1C127 72.1 113.5 58.1 113.5 40.3C113.5 22.5 127 8.59998 143.7 8.59998C160.6 8.59998 173.9 22.2 173.9 40.3ZM166.5 40.3C166.5 26.2 156.5 15.7 143.7 15.7C131.1 15.7 120.9 26.5 120.9 40.3C120.9 54.2 131.2 64.9 143.7 64.9C156.2 64.9 166.5 54.1 166.5 40.3Z" fill="#DD242F"/>
<path d="M244.5 71H237V42.8C237 35.8 233.7 31.5 226.7 31.5C220.5 31.5 216.1 36.6 216.1 43.4V71H208.7V42.8C208.7 35.8 205.2 31.5 198.5 31.5C192.3 31.5 187.8 36.6 187.8 43.4V71H180.3V25.8H187.5V30.7C190.3 26.9 194.5 24.6 199.5 24.6C205.9 24.6 210.7 27.5 213.5 32.3C216.3 27.6 221.1 24.6 227.6 24.6C238.1 24.6 244.4 31.7 244.4 43V71H244.5Z" fill="#DD242F"/>
<path d="M290.5 71H283.1V43.5C283.1 36.6 279.2 31.5 272 31.5C265.1 31.5 260.1 36.6 260.1 43.4V71H252.6V25.8H259.8V30.7C262.9 26.9 267.5 24.6 273 24.6C284.1 24.6 290.4 32.5 290.4 43.8V71H290.5Z" fill="#DD242F"/>
<path d="M340 57C336.8 66.7 329.1 72.0999 318.6 72.0999C305.6 72.0999 295.4 61.7 295.4 48.5C295.4 35.4 305.6 24.7 318.2 24.7C329.9 24.7 341.1 34.4 341 50.4H303C304 59.8 311.2 65.3 318.6 65.3C325 65.3 329.6 62.2 332 57H340ZM332.8 43.7C331 36.3 324.8 31.4 318.2 31.4C312 31.4 305.4 36 303.4 43.7H332.8Z" fill="#DD242F"/>
<path d="M129.3 82.4H130.1L133.8 90.6H132.6L131.5 88.2H128L127 90.6H125.8L129.3 82.4ZM131 87.1L129.7 84.1L128.5 87.1H131Z" fill="#3B4C7A"/>
<path d="M142.3 86.6H145V90C144 90.4 143 90.7 142 90.7C140.6 90.7 139.6 90.3 138.8 89.5C138 88.7 137.6 87.7 137.6 86.6C137.6 85.4 138 84.4 138.9 83.5C139.8 82.6 140.8 82.3 142.1 82.3C142.6 82.3 143 82.3 143.4 82.4C143.8 82.5 144.3 82.7 145 82.9V84.1C144 83.5 143.1 83.3 142.1 83.3C141.2 83.3 140.5 83.6 139.8 84.2C139.1 84.8 138.9 85.6 138.9 86.4C138.9 87.3 139.2 88.1 139.8 88.7C140.4 89.3 141.2 89.6 142.2 89.6C142.7 89.6 143.2 89.5 143.9 89.3H144V87.6H142.4V86.6H142.3Z" fill="#3B4C7A"/>
<path d="M146.8 90.6V82.4H148.9C149.7 82.4 150.4 82.6 150.9 83C151.4 83.4 151.6 84 151.6 84.7C151.6 85.2 151.5 85.6 151.2 85.9C150.9 86.2 150.6 86.5 150.2 86.7C150.5 86.9 150.7 87.1 151 87.4C151.3 87.7 151.6 88.2 152.1 89C152.4 89.5 152.6 89.8 152.8 90L153.2 90.6H151.8L151.4 90.1C151.4 90.1 151.4 90 151.3 90L151.1 89.7L150.7 89.1L150.3 88.5C150.1 88.2 149.8 87.9 149.6 87.7C149.4 87.5 149.2 87.4 149.1 87.3C148.9 87.2 148.7 87.2 148.3 87.2H148V90.8H146.8V90.6ZM148.4 83.4H148V86H148.4C149 86 149.4 85.9 149.6 85.8C149.8 85.7 150 85.5 150.1 85.3C150.2 85.1 150.3 84.9 150.3 84.6C150.3 84.3 150.2 84.1 150.1 83.9C150 83.7 149.8 83.5 149.5 83.5C149.2 83.5 148.9 83.4 148.4 83.4Z" fill="#3B4C7A"/>
<path d="M157.1 82.4H157.9L161.6 90.6H160.4L159.3 88.2H155.8L154.8 90.6H153.6L157.1 82.4ZM158.8 87.1L157.5 84.1L156.3 87.1H158.8Z" fill="#3B4C7A"/>
<path d="M168.3 82.4H169.5V90.6H168.3V87H163.7V90.6H162.5V82.4H163.7V85.9H168.3V82.4Z" fill="#3B4C7A"/>
<path d="M173.9 82.4H174.7L178.4 90.6H177.2L176.1 88.2H172.6L171.6 90.6H170.4L173.9 82.4ZM175.6 87.1L174.3 84.1L173.1 87.1H175.6Z" fill="#3B4C7A"/>
<path d="M185.8 82.4H186.9V90.6H185.7V84.2L183.2 87.4H183L180.5 84.2V90.6H179.3V82.4H180.4L183.1 85.8L185.8 82.4Z" fill="#3B4C7A"/>
<path d="M198.4 82.4H199.5V90.6H198.3V84.2L195.8 87.4H195.6L193.1 84.2V90.6H191.9V82.4H193L195.7 85.8L198.4 82.4Z" fill="#3B4C7A"/>
<path d="M201.3 82.4H205.9V83.4H202.4V85.9H205.8V86.9H202.4V89.4H206V90.4H201.2V82.4H201.3Z" fill="#3B4C7A"/>
<path d="M207.4 90.6V82.4H210.2C211.3 82.4 212.2 82.6 212.8 82.9C213.4 83.2 214 83.7 214.3 84.4C214.6 85.1 214.9 85.8 214.9 86.5C214.9 87 214.8 87.6 214.6 88.1C214.4 88.6 214.1 89 213.7 89.4C213.3 89.8 212.8 90.1 212.3 90.3C212 90.4 211.7 90.5 211.5 90.5C211.3 90.5 210.7 90.6 210 90.6H207.4V90.6ZM210 83.4H208.5V89.5H210C210.6 89.5 211 89.5 211.4 89.4C211.8 89.3 212 89.2 212.2 89.1C212.4 89 212.6 88.8 212.8 88.6C213.4 88 213.7 87.3 213.7 86.4C213.7 85.5 213.4 84.8 212.8 84.2C212.6 84 212.3 83.8 212 83.7C211.7 83.6 211.4 83.5 211.2 83.4C211 83.3 210.6 83.4 210 83.4Z" fill="#3B4C7A"/>
<path d="M216.4 82.4H217.6V90.6H216.4V82.4Z" fill="#3B4C7A"/>
<path d="M222 82.4H222.8L226.5 90.6H225.3L224.2 88.2H220.7L219.7 90.6H218.5L222 82.4ZM223.7 87.1L222.4 84.1L221.2 87.1H223.7Z" fill="#3B4C7A"/>
<path d="M235 86.6H237.7V90C236.7 90.4 235.7 90.7 234.7 90.7C233.3 90.7 232.3 90.3 231.5 89.5C230.7 88.7 230.3 87.7 230.3 86.6C230.3 85.4 230.7 84.4 231.6 83.5C232.5 82.6 233.5 82.3 234.8 82.3C235.3 82.3 235.7 82.3 236.1 82.4C236.5 82.5 237 82.7 237.7 82.9V84.1C236.7 83.5 235.8 83.3 234.8 83.3C233.9 83.3 233.2 83.6 232.5 84.2C231.8 84.8 231.6 85.6 231.6 86.4C231.6 87.3 231.9 88.1 232.5 88.7C233.1 89.3 233.9 89.6 234.9 89.6C235.4 89.6 235.9 89.5 236.6 89.3H236.7V87.6H235V86.6Z" fill="#3B4C7A"/>
<path d="M239.5 90.6V82.4H241.6C242.4 82.4 243.1 82.6 243.6 83C244.1 83.4 244.3 84 244.3 84.7C244.3 85.2 244.2 85.6 243.9 85.9C243.6 86.2 243.3 86.5 242.9 86.7C243.2 86.9 243.4 87.1 243.7 87.4C244 87.7 244.3 88.2 244.8 89C245.1 89.5 245.3 89.8 245.5 90L245.9 90.6H244.5L244.1 90.1C244.1 90.1 244.1 90 244 90L243.8 89.7L243.4 89.1L243 88.5C242.8 88.2 242.5 87.9 242.3 87.7C242.1 87.5 241.9 87.4 241.8 87.3C241.6 87.2 241.4 87.2 241 87.2H240.7V90.8H239.5V90.6ZM241 83.4H240.6V86H241C241.6 86 242 85.9 242.2 85.8C242.4 85.7 242.6 85.5 242.7 85.3C242.8 85.1 242.9 84.9 242.9 84.6C242.9 84.3 242.8 84.1 242.7 83.9C242.6 83.7 242.4 83.5 242.1 83.5C241.8 83.5 241.6 83.4 241 83.4Z" fill="#3B4C7A"/>
<path d="M250.3 82.3C251.6 82.3 252.6 82.7 253.5 83.5C254.3 84.3 254.8 85.3 254.8 86.5C254.8 87.7 254.4 88.7 253.5 89.5C252.7 90.3 251.6 90.7 250.3 90.7C249.1 90.7 248 90.3 247.2 89.5C246.4 88.7 246 87.7 246 86.5C246 85.3 246.4 84.3 247.2 83.5C248 82.7 249.1 82.3 250.3 82.3ZM250.4 83.4C249.5 83.4 248.7 83.7 248.1 84.3C247.5 84.9 247.2 85.6 247.2 86.5C247.2 87.4 247.5 88.1 248.1 88.7C248.7 89.3 249.5 89.6 250.4 89.6C251.3 89.6 252.1 89.3 252.7 88.7C253.3 88.1 253.6 87.4 253.6 86.5C253.6 85.6 253.3 84.9 252.7 84.3C252 83.7 251.3 83.4 250.4 83.4Z" fill="#3B4C7A"/>
<path d="M261.9 82.4H263.1V87C263.1 87.6 263.1 88.1 263 88.4C262.9 88.7 262.8 89 262.7 89.2C262.6 89.4 262.4 89.6 262.2 89.8C261.6 90.4 260.7 90.6 259.7 90.6C258.6 90.6 257.8 90.3 257.1 89.8C256.9 89.6 256.7 89.4 256.6 89.2C256.5 89 256.4 88.7 256.3 88.4C256.2 88.1 256.2 87.6 256.2 86.9V82.3H257.4V87C257.4 87.8 257.5 88.3 257.7 88.6C257.9 88.9 258.1 89.1 258.5 89.3C258.9 89.5 259.3 89.6 259.8 89.6C260.5 89.6 261.1 89.4 261.5 89.1C261.7 88.9 261.9 88.7 262 88.4C262.1 88.1 262.2 87.7 262.2 87V82.4H261.9Z" fill="#3B4C7A"/>
<path d="M264.8 90.6V82.4H267.4C268.2 82.4 268.8 82.6 269.3 83C269.8 83.4 270 84 270 84.7C270 85.2 269.9 85.6 269.6 86C269.3 86.4 269 86.6 268.6 86.8C268.2 87 267.6 87 266.8 87H266V90.6H264.8V90.6ZM267.2 83.4H266V86H267.3C267.8 86 268.1 85.9 268.4 85.7C268.7 85.5 268.8 85.2 268.8 84.7C268.8 83.8 268.2 83.4 267.2 83.4Z" fill="#3B4C7A"/>
<path d="M281.2 88.7V90C280.3 90.5 279.3 90.7 278.2 90.7C277.3 90.7 276.5 90.5 275.9 90.1C275.3 89.7 274.8 89.2 274.4 88.6C274 88 273.8 87.3 273.8 86.5C273.8 85.3 274.2 84.3 275.1 83.5C276 82.7 277 82.3 278.2 82.3C279.1 82.3 280 82.5 281.1 83V84.3C280.1 83.8 279.2 83.5 278.3 83.5C277.4 83.5 276.6 83.8 276 84.4C275.4 85 275.1 85.7 275.1 86.6C275.1 87.5 275.4 88.2 276 88.8C276.6 89.4 277.4 89.7 278.3 89.7C279.3 89.6 280.3 89.3 281.2 88.7Z" fill="#3B4C7A"/>
<path d="M286.5 82.3C287.8 82.3 288.8 82.7 289.7 83.5C290.5 84.3 291 85.3 291 86.5C291 87.7 290.6 88.7 289.7 89.5C288.9 90.3 287.8 90.7 286.5 90.7C285.3 90.7 284.2 90.3 283.4 89.5C282.6 88.7 282.2 87.7 282.2 86.5C282.2 85.3 282.6 84.3 283.4 83.5C284.2 82.7 285.3 82.3 286.5 82.3ZM286.6 83.4C285.7 83.4 284.9 83.7 284.3 84.3C283.7 84.9 283.4 85.6 283.4 86.5C283.4 87.4 283.7 88.1 284.3 88.7C284.9 89.3 285.7 89.6 286.6 89.6C287.5 89.6 288.3 89.3 288.9 88.7C289.5 88.1 289.8 87.4 289.8 86.5C289.8 85.6 289.5 84.9 288.9 84.3C288.2 83.7 287.5 83.4 286.6 83.4Z" fill="#3B4C7A"/>
<path d="M298.9 82.4H300V90.6H298.8V84.2L296.3 87.4H296.1L293.6 84.2V90.6H292.4V82.4H293.5L296.2 85.8L298.9 82.4Z" fill="#3B4C7A"/>
<path d="M301.8 90.6V82.4H304.4C305.2 82.4 305.8 82.6 306.3 83C306.8 83.4 307 84 307 84.7C307 85.2 306.9 85.6 306.6 86C306.3 86.4 306 86.6 305.6 86.8C305.2 87 304.6 87 303.8 87H303V90.6H301.8V90.6ZM304.2 83.4H303V86H304.3C304.8 86 305.1 85.9 305.4 85.7C305.7 85.5 305.8 85.2 305.8 84.7C305.8 83.8 305.3 83.4 304.2 83.4Z" fill="#3B4C7A"/>
<path d="M310 82.4H310.8L314.5 90.6H313.3L312.2 88.2H308.7L307.7 90.6H306.5L310 82.4ZM311.7 87.1L310.4 84.1L309.2 87.1H311.7Z" fill="#3B4C7A"/>
<path d="M321.9 82.4H323V90.6H322L316.5 84.3V90.6H315.4V82.4H316.3L321.8 88.8V82.4H321.9Z" fill="#3B4C7A"/>
<path d="M329.7 82.4H331.1L328.1 86.3V90.6H326.9V86.3L323.9 82.4H325.3L327.5 85.2L329.7 82.4Z" fill="#3B4C7A"/>
</g>
<defs>
<clipPath id="clip0">
<rect width="341.1" height="98.1" fill="white"/>
</clipPath>
</defs>
</svg>
